<?xml version="1.0" ?><!-- Uploaded to: SVG Repo, www.svgrepo.com, Generator: SVG Repo Mixer Tools -->
<svg class="fill-blue-500" fill="#FFFFFF" width="800px" height="800px" viewBox="0 0 32 32" data-name="Layer 1" id="Layer_1" xmlns="http://www.w3.org/2000/svg"><title/><path d="M23.93,2H8.07a2.8,2.8,0,0,0-2.8,2.8V27.2A2.8,2.8,0,0,0,8.07,30H23.93a2.8,2.8,0,0,0,2.8-2.8V4.8A2.8,2.8,0,0,0,23.93,2Zm.94,25.2a.94.94,0,0,1-.94.93H8.07a.94.94,0,0,1-.94-.93V4.8a.94.94,0,0,1,.94-.93H23.93a.94.94,0,0,1,.94.93Z"/><path d="M21.44,15.07H16.93V10.56a.93.93,0,1,0-1.86,0v4.51H10.56a.93.93,0,1,0,0,1.86h4.51v4.51a.93.93,0,1,0,1.86,0V16.93h4.51a.93.93,0,1,0,0-1.86Z"/></svg>